PathFileType	4	(X/Y/Z)	/Users/niels/Desktop/University/Third Semester/Perception and Action/Exam/Gymnastics Motion Tracking/Code for Gym Tracking/Analyzed Data/Start Salto/stsalto_bad_id2_1_Sports2D/stsalto_bad_id2_1_Sports2D_px_person00.trc
DataRate	CameraRate	NumFrames	NumMarkers	Units	OrigDataRate	OrigDataStartFrame	OrigNumFrames
29.84771573604061	29.84771573604061	9	22	m	29.84771573604061	73	197
Frame#	Time	Hip			RHip			RKnee			RAnkle			RBigToe			RSmallToe			RHeel			LHip			LKnee			LAnkle			LBigToe			LSmallToe			LHeel			Neck			Head			Nose			RShoulder			RElbow			RWrist			LShoulder			LElbow			LWrist		
		X1	Y1	Z1	X2	Y2	Z2	X3	Y3	Z3	X4	Y4	Z4	X5	Y5	Z5	X6	Y6	Z6	X7	Y7	Z7	X8	Y8	Z8	X9	Y9	Z9	X10	Y10	Z10	X11	Y11	Z11	X12	Y12	Z12	X13	Y13	Z13	X14	Y14	Z14	X15	Y15	Z15	X16	Y16	Z16	X17	Y17	Z17	X18	Y18	Z18	X19	Y19	Z19	X20	Y20	Z20	X21	Y21	Z21	X22	Y22	Z22
73	2.4457482993197277	1.1635724538812384	-0.3865914219758882	0.0	1.1643443901561243	-0.3852614426005	0.0	1.0880547851175857	-0.2847276654803874	0.0	1.0465531247142668	-0.17451861190674547	0.0	1.008892092019119	-0.13853931896247315	0.0	1.0173655788505331	-0.14241796591886072	0.0	1.0445481391295488	-0.16807551290389303	0.0	1.156581859546317	-0.38741012622802623	0.0	1.086088941980821	-0.28681497335130346	0.0	1.2044200472352755	-0.28740703595203526	0.0	1.249042835531185	-0.25976554955831	0.0	1.238260941216036	-0.2569098072841626	0.0	1.212633844927393	-0.29774341246128194	0.0	1.0262326678050722	-0.42494018069350964	0.0	0.9441198568891688	-0.41312605039841477	0.0	0.9897628077844121	-0.39017504714064816	0.0	1.0363141198963666	-0.42352474319978684	0.0	1.0560836050110076	-0.35531187177653106	0.0	1.0576511622838758	-0.30645442515676025	0.0	1.0364044081220012	-0.42747788117966684	0.0	1.0544543134112547	-0.3549430448841313	0.0	1.0541986238999739	-0.30889703900857507	0.0
74	2.4792517006802717	1.1698254876926253	-0.39465066412488436	0.0	1.1716170135679882	-0.39202898426608906	0.0	1.1045785883396229	-0.28517983786272605	0.0	1.0735947953627267	-0.172151081439481	0.0	1.0392690277142052	-0.1317643646968532	0.0	1.0498848915085606	-0.13733856407820483	0.0	1.0726923995705544	-0.16454009197303154	0.0	1.1643518033005127	-0.39495957848176644	0.0	1.102434147464474	-0.28750717271670134	0.0	1.2209591783103508	-0.2985186831740729	0.0	1.2674788347032322	-0.2741654086805065	0.0	1.256708489187749	-0.27140781541702175	0.0	1.2290290218975117	-0.3096619631362171	0.0	1.030331174833943	-0.4224045931776298	0.0	0.9489575431187167	-0.40307747294955293	0.0	0.9978647338448973	-0.3834262863334316	0.0	1.0397304469131585	-0.4219029000706649	0.0	1.062464861499182	-0.35534845779028884	0.0	1.0683107973857933	-0.2992489261978821	0.0	1.039506731243277	-0.42546425964393797	0.0	1.0613372821514768	-0.352755695139088	0.0	1.065394413655686	-0.30337185015662116	0.0
75	2.512755102040816	1.1760197556913652	-0.4026784025555793	0.0	1.1786739653899272	-0.39845122255862037	0.0	1.1212439279526436	-0.2862904300855355	0.0	1.1004567637426736	-0.17145614603946024	0.0	1.0693316341302557	-0.12765685045488	0.0	1.0819860047062646	-0.13413944829910612	0.0	1.1006137990174054	-0.16265479124351206	0.0	1.1719152523984877	-0.4020619540719936	0.0	1.1193589630840917	-0.2896948219770427	0.0	1.236271231247377	-0.3100037884884847	0.0	1.2831745628359787	-0.28942686240924487	0.0	1.274475787958006	-0.28671558201581926	0.0	1.244125595999892	-0.32154742748289006	0.0	1.0346698576672162	-0.4195129547613372	0.0	0.9546890862545496	-0.3932385792210247	0.0	1.0066504632353044	-0.3773117532351228	0.0	1.0434290342542178	-0.420062386387223	0.0	1.0690412057036252	-0.35346913080063685	0.0	1.0792827180541393	-0.2903542215813641	0.0	1.0426980818337377	-0.42332362690571435	0.0	1.0678752217559877	-0.35019925788537026	0.0	1.0769228101563495	-0.29586852185899576	0.0
76	2.5462585034013605	1.1825432156866007	-0.41062089409096864	0.0	1.1856194451670368	-0.40471110589441345	0.0	1.1383388485734627	-0.2881014467581043	0.0	1.1273961878761916	-0.1722518988363499	0.0	1.0996108248895082	-0.1264343284621633	0.0	1.1135827669112623	-0.1326248558455356	0.0	1.128693612564005	-0.16282943492858487	0.0	1.1793132654318557	-0.4088818384401854	0.0	1.1372896204668481	-0.2929636412097773	0.0	1.2516871241853942	-0.32233946733593877	0.0	1.2982092570256647	-0.3057410425742833	0.0	1.2923204095832512	-0.3030353003171438	0.0	1.2595405288337205	-0.3341317278094984	0.0	1.039351919875721	-0.41632677076243246	0.0	0.961543313229882	-0.38369269531584177	0.0	1.0161517318832731	-0.37183088511414575	0.0	1.0475908519519328	-0.4179830995695398	0.0	1.0759334660786786	-0.35093128474193624	0.0	1.0902055942430686	-0.281875414285154	0.0	1.0461992321898845	-0.4211920465001226	0.0	1.0737338626472197	-0.3480657821840992	0.0	1.0883965625267922	-0.2882154612809034	0.0
77	2.5797619047619045	1.1895547272928138	-0.4185433089339338	0.0	1.192479991808494	-0.4110736256428934	0.0	1.1561377170863483	-0.29074761412054817	0.0	1.154850027766544	-0.17455999922332482	0.0	1.1310712818966218	-0.1280977068967009	0.0	1.1450469523206444	-0.13285653480937545	0.0	1.1574212954144556	-0.1654201633269614	0.0	1.1865408132177209	-0.4157142022345318	0.0	1.156598293880694	-0.29738334118091453	0.0	1.2679543895295693	-0.33603645007267446	0.0	1.31405171402409	-0.32347031974267926	0.0	1.310718495953934	-0.320810055008245	0.0	1.27597963862439	-0.34814905861788625	0.0	1.0445818053162654	-0.41301845138423626	0.0	0.969787006146819	-0.3745015811683817	0.0	1.026346223412709	-0.36681162595355454	0.0	1.0523973858662712	-0.41585570852116205	0.0	1.0832711757292801	-0.3487279970599699	0.0	1.100880089285364	-0.2756239233561268	0.0	1.0501685559505367	-0.41922904074826267	0.0	1.0789373761276297	-0.3466598042916469	0.0	1.0994993797124564	-0.2819162538803234	0.0
78	2.613265306122449	1.1968627154644134	-0.4263187988213905	0.0	1.1991209393642666	-0.4176285009539276	0.0	1.174529045170983	-0.29434128825324346	0.0	1.1828502377784762	-0.1784857271429718	0.0	1.164048499504689	-0.1323817428361127	0.0	1.1765545009657634	-0.1351297958928912	0.0	1.1866974784947224	-0.17051458461244615	0.0	1.193491537465816	-0.4225412584310031	0.0	1.1772990055524903	-0.303266862046938	0.0	1.28508325059552	-0.3512498738745539	0.0	1.3312862167562132	-0.3427173463862518	0.0	1.329638414492903	-0.34017236370555914	0.0	1.2931298557077062	-0.3639097535170144	0.0	1.05041631447424	-0.4098538443427037	0.0	0.9795357808031196	-0.3659070596320885	0.0	1.0370260686660167	-0.36218902597864483	0.0	1.0578306030353244	-0.4140861862618454	0.0	1.0910289082936644	-0.34753669083489597	0.0	1.111122892386298	-0.27263242459724574	0.0	1.0546715056553597	-0.4174851131533784	0.0	1.0838177414313344	-0.3458749752874637	0.0	1.1099003920929826	-0.27786241627159386	0.0
79	2.646768707482993	1.204017658648856	-0.4335678642543707	0.0	1.2054254883390365	-0.42423120856259816	0.0	1.1930671412851288	-0.2988642325711562	0.0	1.2110477445598373	-0.18409468347749794	0.0	1.1977086019037098	-0.138658246770252	0.0	1.2078525093055714	-0.13955129417356849	0.0	1.2160081655132926	-0.1778333592158836	0.0	1.2001164790341836	-0.42893556388588494	0.0	1.1991023204724214	-0.310883251704266	0.0	1.3025794034639124	-0.36775409939645615	0.0	1.3495613628548124	-0.36299467372909744	0.0	1.3485922835094553	-0.36059592746508845	0.0	1.3101473542847881	-0.38112417182429187	0.0	1.056633318920477	-0.4070663684840266	0.0	0.9906838888173143	-0.35821310791989375	0.0	1.0479525902723874	-0.3580569685603506	0.0	1.0635988572295307	-0.41302880873733944	0.0	1.0989859679790535	-0.3475526573265277	0.0	1.120755442953937	-0.2728908532226984	0.0	1.0597388176919733	-0.41577274668125275	0.0	1.0889189861342228	-0.3454633141383078	0.0	1.1194217392075765	-0.27628746618191996	0.0
80	2.6802721088435373	1.2105734370038534	-0.4398461880070504	0.0	1.2114125306993306	-0.43061651355603414	0.0	1.211265622241656	-0.3042011073995436	0.0	1.2389528667111143	-0.19142515805475788	0.0	1.230536190538449	-0.1461513115508427	0.0	1.2384758518244807	-0.14594919113558974	0.0	1.244825332594732	-0.18698825627361765	0.0	1.206512032977603	-0.43439153780410406	0.0	1.2214743067799851	-0.320315826881038	0.0	1.319829079836189	-0.3851308830199008	0.0	1.367914925013398	-0.3834092177409347	0.0	1.3668773726514822	-0.3811808326548385	0.0	1.326264358342207	-0.3991312407045159	0.0	1.0628940626412244	-0.4047868675137918	0.0	1.0029350481745565	-0.35162747761737123	0.0	1.0590298213861546	-0.35459588000454234	0.0	1.0692798467088018	-0.4128217969712855	0.0	1.1068439585144028	-0.3485071836305384	0.0	1.1296246809749904	-0.2756612567584251	0.0	1.065397028120153	-0.4137750210205219	0.0	1.0948601973387344	-0.3452195009569887	0.0	1.1281111068095664	-0.27695393371593346	0.0
81	2.7137755102040813	1.2163534990070137	-0.4448858270419233	0.0	1.2171388552207092	-0.4365100887615317	0.0	1.2287906187077595	-0.3102029390502337	0.0	1.2660581046881432	-0.2004848000973853	0.0	1.2613536862049106	-0.15443648250676656	0.0	1.2680928101875626	-0.15417292884999956	0.0	1.2727022232421183	-0.19775112769941525	0.0	1.2128462746103361	-0.4387775690332855	0.0	1.2437136031534959	-0.3314055204567357	0.0	1.3363273013336732	-0.40298778708750893	0.0	1.3853215156752952	-0.4032409828360519	0.0	1.3838260400308622	-0.4013240279635422	0.0	1.3411348642943197	-0.41737137343758135	0.0	1.0690222477108386	-0.4030992446224407	0.0	1.0159423138001873	-0.34623725734597893	0.0	1.0703458359912088	-0.3521006290513724	0.0	1.0745736417264207	-0.4133600644338841	0.0	1.1143721646294915	-0.35004737458856744	0.0	1.137632839250411	-0.2801667872587638	0.0	1.0715993061955087	-0.4113971447704225	0.0	1.1020292002368808	-0.3450681832748187	0.0	1.1360792660640833	-0.2794180673528318	0.0
